# xmcd
#
# Track frame offsets:
#	150
#	14442
#	29420
#	44510
#	59922
#	74277
#	84680
#	99115
#	113645
#	123270
#	134897
#	150360
#	163632
#	176897
#	189732
#	198702
#	212740
#	227135
#	239115
#	254497
#
# Disc length: 3601 seconds
#
# Revision: 1
# Processed by: cddbd v1.5.2PL0 Copyright (c) Steve Scherf et al.
# Submitted via: audiograbber 1.83.01
#
DISCID=300e0f14
DTITLE=Frank Sinatra - The Frank Sinatra Collection (Disk 1)
DYEAR=1900
DGENRE=
TTITLE0=These Foolish Things
TTITLE1=Over The Rainbow
TTITLE2=Embraceable You
TTITLE3=The Song Is You
TTITLE4=Sweet Lorraine
TTITLE5=I Don't Know Why
TTITLE6=Time After Time
TTITLE7=Fools Rush In
TTITLE8=Between The Devil And The Deep Blue Sea
TTITLE9=The Sunshine Of Your Smile
TTITLE10=The Night We Called It A Day
TTITLE11=How About You
TTITLE12=The Lamplighter's Serenade
TTITLE13=Be Careful It's My Heart
TTITLE14=Don't Blame Me
TTITLE15=Violets For Your Furs
TTITLE16=Too Romantic
TTITLE17=You Lucky People, You
TTITLE18=Love Lies
TTITLE19=You'll Never Walk Alone
EXTD=
EXTT0=
EXTT1=
EXTT2=
EXTT3=
EXTT4=
EXTT5=
EXTT6=
EXTT7=
EXTT8=
EXTT9=
EXTT10=
EXTT11=
EXTT12=
EXTT13=
EXTT14=
EXTT15=
EXTT16=
EXTT17=
EXTT18=
EXTT19=
PLAYORDER=
